<?xml version="1.0" encoding="UTF-8" standalone="no"?>
<!-- Created with Inkscape (http://www.inkscape.org/) -->

<svg
   xmlns:dc="http://purl.org/dc/elements/1.1/"
   xmlns:cc="http://creativecommons.org/ns#"
   xmlns:rdf="http://www.w3.org/1999/02/22-rdf-syntax-ns#"
   xmlns:svg="http://www.w3.org/2000/svg"
   xmlns="http://www.w3.org/2000/svg"
   xmlns:sodipodi="http://sodipodi.sourceforge.net/DTD/sodipodi-0.dtd"
   xmlns:inkscape="http://www.inkscape.org/namespaces/inkscape"
   width="30"
   height="30"
   viewBox="0 0 29.999999 29.999998"
   id="svg2"
   version="1.1"
   inkscape:version="0.91 r13725"
   sodipodi:docname="iconSmall.svg">
  <defs
     id="defs4">
    <clipPath
       clipPathUnits="userSpaceOnUse"
       id="clipPath18">
      <path
         inkscape:connector-curvature="0"
         d="m 0,0 566.929,0 0,566.929 -566.929,0 z"
         id="path16" />
    </clipPath>
    <clipPath
       clipPathUnits="userSpaceOnUse"
       id="clipPath38">
      <path
         inkscape:connector-curvature="0"
         d="m 0,0 566.929,0 0,566.929 -566.929,0 z"
         id="path36" />
    </clipPath>
    <clipPath
       id="clipPath18-4"
       clipPathUnits="userSpaceOnUse">
      <path
         id="path16-2"
         d="m 0,113.39 226.77,0 L 226.77,0 0,0 Z"
         inkscape:connector-curvature="0" />
    </clipPath>
    <clipPath
       id="clipPath22"
       clipPathUnits="userSpaceOnUse">
      <path
         id="path20"
         d="m 0,141.732 226.771,0 L 226.771,0 0,0 Z"
         inkscape:connector-curvature="0" />
    </clipPath>
    <clipPath
       id="clipPath18-8"
       clipPathUnits="userSpaceOnUse">
      <path
         id="path16-7"
         d="m 0,113.39 226.77,0 L 226.77,0 0,0 Z"
         inkscape:connector-curvature="0" />
    </clipPath>
  </defs>
  <sodipodi:namedview
     id="base"
     pagecolor="#ffffff"
     bordercolor="#666666"
     borderopacity="1.0"
     inkscape:pageopacity="0.0"
     inkscape:pageshadow="2"
     inkscape:zoom="7.919596"
     inkscape:cx="19.418827"
     inkscape:cy="2.6970589"
     inkscape:document-units="px"
     inkscape:current-layer="g4137"
     showgrid="false"
     units="px"
     inkscape:window-width="1920"
     inkscape:window-height="1017"
     inkscape:window-x="1912"
     inkscape:window-y="-8"
     inkscape:window-maximized="1"
     fit-margin-top="0"
     fit-margin-left="0"
     fit-margin-right="0"
     fit-margin-bottom="0" />
  <metadata
     id="metadata7">
    <rdf:RDF>
      <cc:Work
         rdf:about="">
        <dc:format>image/svg+xml</dc:format>
        <dc:type
           rdf:resource="http://purl.org/dc/dcmitype/StillImage" />
        <dc:title></dc:title>
      </cc:Work>
    </rdf:RDF>
  </metadata>
  <g
     inkscape:label="Livello 1"
     inkscape:groupmode="layer"
     id="layer1"
     transform="translate(-4.6079063,-1020.0134)">
    <g
       id="g4137"
       transform="matrix(6.1533475,0,0,5.95638,-206.69238,570.33419)">
      <g
         id="g4139"
         transform="matrix(0.08903697,0,0,0.08903697,31.987361,73.362841)">
        <path
           id="path4141"
           d="m 50.646,60.907 0,-7.511 c -5.504,-0.576 -9.793,-5.229 -9.793,-10.884 0,-5.656 4.289,-10.308 9.793,-10.884 l 0,-7.511 c -9.643,0.595 -17.282,8.602 -17.282,18.395 0,9.794 7.639,17.8 17.282,18.395"
           inkscape:connector-curvature="0"
           style="fill:#0090ba" />
        <path
           id="path4143"
           d="m 51.798,73.043 c -6.045,0 -10.945,-4.9 -10.945,-10.945 l -7.489,0 c 0,10.18 8.253,18.434 18.434,18.434 10.181,0 18.434,-8.252 18.434,-18.434 l -7.489,0 c 0,6.045 -4.9,10.945 -10.945,10.945 m 18.434,-13.273 0,-11.291 0,-5.968 0,-8.641 -7.489,0 0,8.642 c 0,5.656 -4.29,10.308 -9.793,10.884 l 0,7.504 c 3.654,-0.227 7.021,-1.507 9.793,-3.556 l 0,2.426 7.489,0 z"
           inkscape:connector-curvature="0"
           style="fill:#777777;fill-opacity:1" />
        <path
           style="opacity:1;fill:#0089b6;fill-opacity:1;stroke:none;stroke-width:0.1;stroke-miterlimit:4;stroke-dasharray:none;stroke-opacity:1"
           d="M 92.466999,217.28 C 70.674413,213.33262 50.464689,202.85457 33.964738,186.94857 20.164651,173.64525 11.629368,160.1676 5.6864214,142.29567 -2.4261967,117.89899 -0.60774929,88.667559 10.496659,64.97137 23.197261,37.868992 47.415206,16.319563 75.853047,6.8164405 83.714008,4.1895294 100.02344,0.64954826 104.26521,0.64954826 c 1.1281,0 1.38291,4.05236444 1.38291,21.99298674 l 0,21.992987 -6.818526,1.247234 C 83.180222,48.745312 64.816008,61.206923 56.423565,74.65869 48.162173,87.900404 45.498762,98.106186 46.274349,113.54891 c 1.295125,25.78724 17.158262,47.13766 42.508714,57.21308 3.780437,1.50252 9.121618,2.99811 11.869287,3.32353 l 4.99577,0.59167 0,22.08265 0,22.08266 -2.77792,-0.0906 c -1.52785,-0.0499 -6.209293,-0.71219 -10.403201,-1.47185 l 0,-4e-5 z"
           id="path4240"
           inkscape:connector-curvature="0"
           transform="matrix(0.16251317,0,0,0.16788721,33.364,24.077996)" />
        <path
           style="opacity:1;fill:#0089b6;fill-opacity:1;stroke:none;stroke-width:0.1;stroke-miterlimit:4;stroke-dasharray:none;stroke-opacity:1"
           d="M 92.696367,217.32024 C 69.201686,213.06369 47.325129,201.16047 30.318863,183.38014 18.544587,171.06995 11.157829,158.74956 5.6864214,142.29567 -2.4261967,117.89899 -0.60774929,88.667559 10.496659,64.97137 23.197261,37.868992 47.415206,16.319563 75.853047,6.8164405 83.714008,4.1895294 100.02344,0.64954826 104.26521,0.64954826 c 1.12854,0 1.38291,4.08775764 1.38291,22.22335574 l 0,22.223356 -2.47323,0 c -4.324139,0 -18.001966,4.863449 -24.785396,8.812987 -3.602777,2.097655 -9.812523,7.046975 -13.799435,10.998485 -5.791703,5.740275 -8.167802,9.090894 -11.819805,16.667517 -5.689414,11.803531 -7.18396,19.243201 -6.432514,32.020251 0.97528,16.58299 6.867364,29.56079 18.937894,41.71227 6.136773,6.17793 9.499237,8.59816 17.182643,12.36765 5.577194,2.73619 12.390463,5.2057 16.371317,5.93387 l 6.818526,1.24724 0,21.99298 0,21.99299 -2.77792,-0.0911 c -1.52785,-0.0501 -6.106078,-0.69414 -10.173833,-1.43109 l 0,-5e-5 z"
           id="path4242"
           inkscape:connector-curvature="0"
           transform="matrix(0.16251317,0,0,0.16788721,33.364,24.077996)" />
        <path
           style="opacity:1;fill:#0089b6;fill-opacity:1;stroke:none;stroke-width:0.1;stroke-miterlimit:4;stroke-dasharray:none;stroke-opacity:1"
           d="M 90.025281,216.79275 C 68.139775,212.18312 50.277275,202.6739 33.964738,186.94857 11.96479,165.74056 0.5922599,139.43181 0.5922599,109.74602 0.5922599,79.852664 12.117114,53.45379 34.515896,32.040415 52.339893,15.000563 75.154975,4.2078634 99.839747,1.1388962 l 5.808373,-0.72213418 0,22.22505298 0,22.225051 -4.79822,0.709596 C 93.981402,46.592223 82.7693,51.154934 75.798207,55.771128 57.999365,67.557356 47.489652,85.562463 46.356382,106.21049 c -1.646311,29.99553 17.025888,56.39602 46.464443,65.69572 4.334456,1.36927 8.993785,2.48957 10.354065,2.48957 l 2.47323,0 0,22.22336 0,22.22336 -3.28299,-0.0711 c -1.80565,-0.0391 -7.358581,-0.9295 -12.339849,-1.97867 l 0,4e-5 z"
           id="path4244"
           inkscape:connector-curvature="0"
           transform="matrix(0.16251317,0,0,0.16788721,33.364,24.077996)" />
        <path
           style="opacity:1;fill:#0089b6;fill-opacity:1;stroke:none;stroke-width:0.1;stroke-miterlimit:4;stroke-dasharray:none;stroke-opacity:1"
           d="M 89.99076,216.78989 C 68.182316,212.20708 50.778771,203.03794 34.632512,187.62417 24.58307,178.03062 18.889725,170.67747 13.134498,159.85877 -3.1397176,129.26642 -3.6796806,92.812302 11.688984,62.268853 23.496886,38.802009 46.333764,18.031203 70.627514,8.6625401 80.03144,5.0360025 91.611243,2.0197481 99.839747,1.0534706 l 5.808373,-0.68208079 0,22.16032719 0,22.160327 -6.313449,1.272414 C 86.215379,48.60852 69.632904,58.643546 60.684754,69.353784 41.566548,92.236786 41.537855,126.51158 60.61703,150.25078 c 8.767841,10.90934 23.035878,19.68031 37.202412,22.86938 l 7.828678,1.76234 0,21.98 0,21.98 -3.28299,-0.0711 c -1.80565,-0.0391 -7.374115,-0.93078 -12.37437,-1.98153 l 0,4e-5 z"
           id="path4246"
           inkscape:connector-curvature="0"
           transform="matrix(0.16251317,0,0,0.16788721,33.364,24.077996)" />
        <path
           style="opacity:1;fill:#0089b6;fill-opacity:1;stroke:none;stroke-width:0.1;stroke-miterlimit:4;stroke-dasharray:none;stroke-opacity:1"
           d="M 95.546599,218.13981 C 80.646335,215.6172 61.176075,207.86417 49.033763,199.61849 41.177607,194.28347 28.095942,181.89962 22.115818,174.13642 -2.0804314,142.72565 -6.255553,97.931551 11.688984,62.268853 22.0459,41.685676 40.933975,22.985771 62.211565,12.249598 72.882893,6.8650955 94.863742,0.64954826 103.23433,0.64954826 l 2.41379,0 0,22.01264774 0,22.012648 -7.323602,1.703703 C 85.888694,49.271513 75.154665,55.300728 65.736191,64.68314 56.732724,73.652134 53.303949,79.056385 49.322752,90.553124 c -2.233328,6.449316 -2.623537,9.303948 -2.623537,19.192896 0,10.04229 0.376659,12.71203 2.779076,19.69798 6.194535,18.01297 16.973297,30.03311 34.451553,38.41932 5.000255,2.39916 11.932427,4.94139 15.404827,5.6494 l 6.313449,1.28728 0,22.02125 0,22.02125 -3.78807,-0.13757 c -2.083438,-0.0757 -4.924492,-0.32996 -6.313451,-0.56512 z"
           id="path4248"
           inkscape:connector-curvature="0"
           transform="matrix(0.16251317,0,0,0.16788721,33.364,24.077996)" />
        <path
           style="opacity:1;fill:#777777;fill-opacity:1;stroke:none;stroke-width:0.1;stroke-miterlimit:4;stroke-dasharray:none;stroke-opacity:1"
           d="M 91.505988,217.3424 C 68.418904,212.73533 47.86,201.42978 31.189396,184.17372 20.879666,173.50191 17.58082,168.96078 11.978454,157.72827 -3.7979368,126.09727 -3.3805263,90.6783 13.134498,59.633277 23.5994,39.961302 41.382481,22.716961 61.706488,12.532778 73.513606,6.6163333 94.365491,0.64954826 103.23433,0.64954826 l 2.41379,0 0,22.06261074 0,22.06261 -5.808373,1.270896 c -19.353619,4.234646 -37.289216,17.520467 -45.930132,34.022814 -5.426164,10.362842 -7.166448,17.459363 -7.153987,29.172471 0.0201,18.8908 5.569675,32.28678 18.872176,45.55506 9.383355,9.35921 20.173735,15.40425 32.696714,18.31749 l 7.323602,1.7037 0,22.01265 0,22.01265 -3.78807,-0.095 c -2.083438,-0.0522 -6.742766,-0.68453 -10.354062,-1.40517 l 0,3e-5 z"
           id="path4250"
           inkscape:connector-curvature="0"
           transform="matrix(0.16251317,0,0,0.16788721,33.364,24.077996)" />
        <path
           style="opacity:1;fill:#0089b6;fill-opacity:1;stroke:none;stroke-width:0.1;stroke-miterlimit:4;stroke-dasharray:none;stroke-opacity:1"
           d="m 120.80041,22.367828 0,-21.71827974 82.83251,0 82.83251,0 0,21.71827974 0,21.718279 -82.83251,0 -82.83251,0 0,-21.718279 z"
           id="path4252"
           inkscape:connector-curvature="0"
           transform="matrix(0.16251317,0,0,0.16788721,33.364,24.077996)" />
      </g>
      <rect
         id="rect4145"
         height="0.66661978"
         width="2.4103196"
         y="75.506676"
         x="36.701866"
         style="fill:#777777;fill-opacity:1" />
      <path
         style="fill:#777777;fill-opacity:1"
         inkscape:connector-curvature="0"
         d="m 36.599298,77.917082 c -0.424796,0 -0.769102,-0.344307 -0.769102,-0.769102 0,-0.424795 0.344306,-0.769101 0.769102,-0.769101 0.424795,0 0.769101,0.344306 0.769101,0.769101 0,0.424795 -0.344306,0.769102 -0.769101,0.769102"
         id="path4149" />
    </g>
  </g>
</svg>
